PathFileType	4	(x/y/z)	Passive_Pref0001.trc
DataRate	CameraRate	NumFrames	NumMarkers	Units	OrigDataRate	OrigDataStartFrame	OrigNumFrames
240	240	5	50	mm	240	156	311
Frame#	Time	R_AC			L_AC			HEAD			STERN			C7			L_IC			R_IC			L_ASIS			R_ASIS			L_GT			R_GT			R_PSIS			L_PSIS			SACRAL			L_LAT_KNEE			L_MED_KNEE			R_LAT_KNEE			R_MED_KNEE			L_LAT_ANK			L_MED_ANK			R_LAT_ANK			R_MED_ANK			L_THIGH_PROX_POST			L_THIGH_PROX_ANT			L_THIGH_DIST_ANT			L_THIGH_DIST_POST			R_THIGH_PROX_POST			R_THIGH_PROX_ANT			R_THIGH_DIST_ANT			R_THIGH_DIST_POST			L_SHANK_PROX_POST			L_SHANK_PROX_ANT			L_SHANK_DIST_ANT			L_SHANK_DIST_POST			R_SHANK_PROX_POST			R_SHANK_PROX_ANT			R_SHANK_DIST_ANT			R_SHANK_DIST_POST			L_HEEL_LAT			L_HEEL_SUP			L_HEEL_MED			R_HEEL_LAT			R_HEEL_SUP			R_HEEL_MED			L_1ST_MET			L_5TH_MET			L_TOE			R_1ST_MET			R_5TH_MET			R_TOE			
		X1	Y1	Z1	X2	Y2	Z2	X3	Y3	Z3	X4	Y4	Z4	X5	Y5	Z5	X6	Y6	Z6	X7	Y7	Z7	X8	Y8	Z8	X9	Y9	Z9	X10	Y10	Z10	X11	Y11	Z11	X12	Y12	Z12	X13	Y13	Z13	X14	Y14	Z14	X15	Y15	Z15	X16	Y16	Z16	X17	Y17	Z17	X18	Y18	Z18	X19	Y19	Z19	X20	Y20	Z20	X21	Y21	Z21	X22	Y22	Z22	X23	Y23	Z23	X24	Y24	Z24	X25	Y25	Z25	X26	Y26	Z26	X27	Y27	Z27	X28	Y28	Z28	X29	Y29	Z29	X30	Y30	Z30	X31	Y31	Z31	X32	Y32	Z32	X33	Y33	Z33	X34	Y34	Z34	X35	Y35	Z35	X36	Y36	Z36	X37	Y37	Z37	X38	Y38	Z38	X39	Y39	Z39	X40	Y40	Z40	X41	Y41	Z41	X42	Y42	Z42	X43	Y43	Z43	X44	Y44	Z44	X45	Y45	Z45	X46	Y46	Z46	X47	Y47	Z47	X48	Y48	Z48	X49	Y49	Z49	X50	Y50	Z50	

156	0.64792	46.804	1497.5	455.85	19.885	1521.9	55.756	88.745	1819.2	282.79	119.75	1450.9	257.04	-28.968	1549.2	265.68	-26.288	1094.3	93.811	23.794	1099.5	427.71	39.021	1000.5	108.61	90.904	1012.5	374.92	-85.463	936.54	80.141	7.4043	931.99	443.56	-138.11	1008.8	331.33	-153.69	1019.8	247.84	-158.91	981.61	285.61	-175.82	547.91	105.24	-144.8	545.31	240.82	161.02	540.97	415.92	157.01	536.37	281.53	-398.33	158.24	124.03	-416.8	153.82	204.78	296.32	93.934	378.62	317.66	134.77	281.97	-95.574	774.98	82.116	-35.419	751.63	102.73	-56.139	683.27	109.67	-115.17	701.43	92.873	14.375	772.89	427.44	70.078	797.05	447.63	90.21	724.87	439.4	41.411	705.5	418.28	-194.78	496.14	117.07	-133.62	499.48	128.14	-159.43	437.49	140.91	-215.89	437.54	119.88	166.26	369.86	421.33	220.57	391.19	419.61	245.5	320.41	409.89	194.05	297.13	409.17	-479.77	102.98	121	-490.52	131.47	154.47	-493.76	101.51	188.62	247.09	27.115	333.83	241.61	54.852	299.02	275.84	42.105	275.35	-280.03	39.16	233.05	-289.94	42.733	119.31	-224.58	47.978	202.3	464.03	134.25	308.85	426.85	96.201	414.72	498.78	162.33	371.16
157	0.6521	52.684	1496.6	457.01	25.777	1521.1	56.867	94.17	1818.5	283.85	125.72	1450.2	258.16	-23.13	1548.4	266.83	-20.012	1093.5	94.326	29.841	1098.5	428.4	45.34	999.56	109.09	97.031	1012.1	375.46	-79.29	935.64	80.563	13.637	931.46	444.04	-131.96	1007.8	331.73	-147.5	1018.8	248.26	-152.65	980.59	286.01	-170.86	547.48	105.77	-140.01	544.51	241.35	168	540.8	415.85	163.64	536.26	281.56	-396.78	159.73	124.25	-415.26	155.43	205.03	298.87	92.909	378.32	320.56	132.84	281.36	-89.879	774.3	82.659	-29.876	750.77	103.22	-50.736	682.5	110.13	-109.68	700.8	93.407	20.885	772.42	427.65	76.435	796.62	448.02	96.711	724.49	439.49	48.059	705.1	418.35	-190.28	495.88	117.57	-129.08	498.66	128.61	-155.43	436.89	141.35	-211.89	437.45	120.31	172.27	369.59	421.28	226.75	390.44	419.18	250.99	319.44	409.39	199.34	296.6	409.03	-478.73	105.38	121.22	-489.15	133.92	154.7	-492.66	103.92	188.75	247.92	27.402	333.73	242.98	55.158	298.82	276.88	41.363	275.12	-279.72	39.274	233.09	-289.58	43.031	119.35	-224.18	47.617	202.34	467.03	129.53	307.64	429.37	92.591	413.72	502.69	157.03	369.86
158	0.65628	58.542	1495.7	458.17	31.674	1520.3	57.982	99.606	1817.9	284.9	131.68	1449.6	259.29	-17.298	1547.6	267.98	-13.687	1092.7	94.819	35.89	1097.7	429.09	51.697	998.64	109.59	103.14	1011.7	376.01	-73.067	934.73	80.98	19.838	931.01	444.54	-125.81	1006.9	332.08	-141.31	1017.9	248.64	-146.39	979.62	286.39	-165.76	547.03	106.31	-135.1	543.69	241.89	174.92	540.71	415.84	170.2	536.2	281.62	-395.13	161.28	124.48	-413.6	157.12	205.3	301.31	91.963	378.1	323.35	131	280.81	-84.102	773.61	83.222	-24.233	749.93	103.72	-45.24	681.72	110.61	-104.08	700.17	93.949	27.364	772.04	427.89	82.75	796.27	448.45	103.17	724.19	439.64	54.664	704.79	418.48	-185.64	495.6	118.07	-124.41	497.81	129.1	-151.31	436.29	141.8	-207.77	437.37	120.76	178.25	369.42	421.31	232.9	389.78	418.81	256.43	318.55	408.95	204.58	296.18	408.97	-477.6	107.92	121.44	-487.67	136.51	154.94	-491.46	106.49	188.91	248.66	27.779	333.68	244.26	55.563	298.67	277.82	40.751	274.96	-279.39	39.418	233.14	-289.21	43.361	119.38	-223.76	47.244	202.39	469.89	124.84	306.49	431.77	89.006	412.78	506.46	151.72	368.61
159	0.66046	64.377	1494.9	459.35	37.571	1519.5	59.099	105.05	1817.3	285.96	137.65	1449	260.43	-11.474	1546.9	269.13	-7.3133	1092	95.291	41.932	1096.8	429.77	58.091	997.74	110.1	109.22	1011.5	376.58	-66.794	933.82	81.394	26	930.66	445.06	-119.67	1006	332.4	-135.11	1017	248.97	-140.13	978.7	286.73	-160.5	546.56	106.85	-130.06	542.85	242.44	181.81	540.71	415.9	176.68	536.22	281.71	-393.39	162.91	124.72	-411.81	158.9	205.57	303.64	91.096	377.94	326.03	129.25	280.34	-78.239	772.92	83.804	-18.486	749.11	104.24	-39.647	680.95	111.12	-98.372	699.52	94.499	33.814	771.75	428.17	89.028	796.01	448.93	109.61	723.97	439.84	61.229	704.56	418.66	-180.85	495.32	118.59	-119.61	496.95	129.59	-147.07	435.67	142.26	-203.51	437.28	121.21	184.18	369.35	421.42	239	389.21	418.51	261.81	317.76	408.58	209.78	295.85	409	-476.37	110.61	121.68	-486.07	139.25	155.19	-490.17	109.22	189.09	249.34	28.232	333.68	245.46	56.055	298.6	278.66	40.266	274.84	-279.04	39.594	233.19	-288.81	43.725	119.41	-223.33	46.86	202.43	472.62	120.22	305.42	434.05	85.468	411.9	510.09	146.45	367.44
160	0.66464	70.187	1494.1	460.53	43.464	1518.9	60.216	110.51	1816.8	287.02	143.6	1448.5	261.58	-5.661	1546.3	270.28	-0.8914	1091.3	95.744	47.96	1096.1	430.44	64.516	996.86	110.64	115.27	1011.3	377.16	-60.473	932.92	81.804	32.119	930.41	445.59	-113.54	1005.2	332.67	-128.91	1016.1	249.25	-133.86	977.85	287.03	-155.08	546.06	107.4	-124.85	541.97	243	188.66	540.78	416.01	183.1	536.32	281.86	-391.55	164.61	124.96	-409.89	160.77	205.85	305.85	90.306	377.86	328.59	127.62	279.95	-72.288	772.22	84.404	-12.626	748.33	104.78	-33.951	680.19	111.66	-92.542	698.86	95.054	40.236	771.55	428.5	95.275	795.83	449.44	116.02	723.85	440.11	67.759	704.42	418.9	-175.92	495.02	119.1	-114.66	496.05	130.09	-142.7	435.04	142.71	-199.12	437.19	121.67	190.06	369.37	421.6	245.04	388.73	418.28	267.13	317.06	408.27	214.9	295.63	409.11	-475.04	113.45	121.93	-484.35	142.15	155.44	-488.76	112.12	189.29	249.97	28.749	333.72	246.58	56.621	298.58	279.43	39.904	274.78	-278.66	39.804	233.25	-288.39	44.125	119.45	-222.88	46.465	202.47	475.21	115.71	304.44	436.21	81.996	411.11	513.56	141.23	366.35
